# 3ds Max Wavefront OBJ Exporter v0.97b - (c)2007 guruware
# File Created: 17.07.2017 17:30:33

mtllib box.mtl

#
# object Box001
#

v  -5.9229 0.0000 -3.8843
v  -5.9229 0.0000 5.0964
v  6.0331 0.0000 -3.8843
v  6.0331 0.0000 5.0964
v  6.0331 -7.3829 5.0964
v  -5.9229 -7.3829 5.0964
v  6.0331 -7.3829 -3.8843
v  -5.9229 -7.3829 -3.8843
# 8 vertices

vn 0.0000 1.0000 -0.0000
vn 0.0000 -1.0000 -0.0000
vn 0.0000 0.0000 1.0000
vn 1.0000 0.0000 -0.0000
vn 0.0000 0.0000 -1.0000
vn -1.0000 0.0000 -0.0000
# 6 vertex normals

vt 0.0000 1.0000 0.0000
vt 0.0000 0.0000 0.0000
vt 1.0000 1.0000 0.0000
vt 1.0000 0.0000 0.0000
# 4 texture coords

g Box001
usemtl wire_088088225
f 1/1/1 2/2/1 3/3/1 
f 4/4/1 3/3/1 2/2/1 
f 5/2/2 6/4/2 7/1/2 
f 8/3/2 7/1/2 6/4/2 
f 4/4/3 2/2/3 5/3/3 
f 6/1/3 5/3/3 2/2/3 
f 3/4/4 4/2/4 7/3/4 
f 5/1/4 7/3/4 4/2/4 
f 1/4/5 3/2/5 8/3/5 
f 7/1/5 8/3/5 3/2/5 
f 2/4/6 1/2/6 6/3/6 
f 8/1/6 6/3/6 1/2/6 
# 12 faces

