# 3ds Max Wavefront OBJ Exporter v0.97b - (c)2007 guruware
# File Created: 01.09.2017 13:30:45

mtllib sgtou.mtl

#
# object sgitou
#

v  -1.9653 1.1369 13.8532
v  -1.9653 5.4826 8.7683
v  -2.7972 5.4826 8.7683
v  -2.7972 1.1369 13.8532
v  -2.7972 0.1287 13.8532
v  -1.9653 0.1287 13.8532
v  -1.9653 0.1287 6.7962
v  -2.7972 0.1287 6.7962
v  -2.7972 5.4826 6.7962
v  -1.9653 5.4826 6.7962
v  -5.3251 7.5947 7.3425
v  5.2435 7.5947 7.3425
v  5.2435 7.5947 -7.2043
v  -5.3251 7.5947 -7.2043
v  -5.3251 4.3566 7.3425
v  5.2435 4.3566 7.3425
v  5.2435 4.3566 -7.2043
v  -5.3251 4.3566 -7.2043
v  7.4144 1.1119 15.6234
v  8.2501 1.1119 15.6234
v  8.2501 1.1119 14.1554
v  7.4144 1.1119 14.1554
v  7.4144 0.0705 15.9278
v  8.2501 0.0705 15.9278
v  8.2501 0.0705 13.8509
v  7.4144 0.0705 13.8509
v  -7.3403 -0.2357 -9.2853
v  -7.6493 1.8891 -8.9763
v  -5.9650 1.8891 -4.9102
v  -5.5281 -0.2357 -4.9102
v  -11.7155 -0.2357 -11.0976
v  -11.7155 1.8891 -10.6606
v  -16.0907 -0.2357 -9.2853
v  -15.7817 1.8891 -8.9763
v  -17.9029 -0.2357 -4.9102
v  -17.4659 1.8891 -4.9102
v  -16.0906 -0.2357 -0.5350
v  -15.7817 1.8891 -0.8440
v  -11.7155 -0.2357 1.2773
v  -11.7155 1.8891 0.8403
v  -7.3403 -0.2357 -0.5350
v  -7.6493 1.8891 -0.8440
v  -8.2592 2.7245 -8.3664
v  -15.1717 2.7245 -8.3664
v  -8.2592 2.7245 -1.4539
v  -6.8276 2.7245 -4.9102
v  -11.7155 2.7245 -9.7980
v  -16.6034 2.7245 -4.9102
v  -15.1717 2.7245 -1.4539
v  -11.7155 2.7245 -0.0223
v  -11.1768 -0.1092 -13.2653
v  -11.8546 -0.1092 -14.9017
v  -12.0740 1.5363 -14.6823
v  -11.4870 1.5363 -13.2653
v  -13.4911 -0.1092 -15.5795
v  -13.4911 1.5363 -15.2693
v  -15.1275 -0.1092 -14.9017
v  -14.9081 1.5363 -14.6823
v  -15.8053 -0.1092 -13.2653
v  -15.4951 1.5363 -13.2653
v  -15.1275 -0.1092 -11.6288
v  -14.9081 1.5363 -11.8482
v  -13.4911 -0.1092 -10.9510
v  -13.4911 1.5363 -11.2612
v  -11.8546 -0.1092 -11.6288
v  -12.0740 1.5363 -11.8482
v  1.1446 36.4131 -1.5440
v  4.5691 36.4131 -1.5440
v  4.5691 36.4131 -5.1546
v  1.1446 36.4131 -5.1546
v  1.1446 24.9021 -1.5440
v  4.5691 24.9021 -1.5440
v  4.5691 24.9021 -5.1546
v  1.1446 24.9021 -5.1546
v  1.8197 38.3680 -2.3458
v  3.8164 38.3680 -2.3458
v  3.8164 38.3680 -4.4509
v  1.8197 38.3680 -4.4509
v  1.8197 36.2614 -2.3458
v  3.8164 36.2614 -2.3458
v  3.8164 36.2614 -4.4509
v  1.8197 36.2614 -4.4509
v  1.4376 39.4068 -1.8338
v  4.4053 39.4068 -1.8338
v  4.4053 39.4068 -4.9628
v  1.4376 39.4068 -4.9628
v  1.4376 38.1530 -1.8338
v  4.4053 38.1530 -1.8338
v  4.4053 38.1530 -4.9628
v  1.4376 38.1530 -4.9628
v  3.3366 39.2181 -2.6135
v  3.1902 39.2181 -2.9670
v  3.1902 41.6171 -2.9670
v  3.3366 41.6171 -2.6135
v  2.8366 39.2181 -3.1135
v  2.8366 41.6171 -3.1135
v  2.4831 39.2181 -2.9670
v  2.4831 41.6171 -2.9670
v  2.3366 39.2181 -2.6135
v  2.3366 41.6171 -2.6135
v  2.4831 39.2181 -2.2599
v  2.4831 41.6171 -2.2599
v  2.8366 39.2181 -2.1135
v  2.8366 41.6171 -2.1135
v  3.1902 39.2181 -2.2599
v  3.1902 41.6171 -2.2599
v  3.3366 38.3682 -4.1409
v  3.1902 38.3682 -4.4944
v  3.1902 40.7672 -4.4944
v  3.3366 40.7672 -4.1409
v  2.8366 38.3682 -4.6409
v  2.8366 40.7672 -4.6409
v  2.4831 38.3682 -4.4944
v  2.4831 40.7672 -4.4944
v  2.3366 38.3682 -4.1409
v  2.3366 40.7672 -4.1409
v  2.4831 38.3682 -3.7873
v  2.4831 40.7672 -3.7873
v  2.8366 38.3682 -3.6409
v  2.8366 40.7672 -3.6409
v  3.1902 38.3682 -3.7873
v  3.1902 40.7672 -3.7873
v  2.5375 1.1369 13.8532
v  2.5375 5.4826 8.7683
v  1.7056 5.4826 8.7683
v  1.7056 1.1369 13.8532
v  1.7056 0.1287 13.8532
v  2.5375 0.1287 13.8532
v  2.5375 0.1287 6.7962
v  1.7056 0.1287 6.7962
v  1.7056 5.4826 6.7962
v  2.5375 5.4826 6.7962
v  2.0534 0.8867 12.1639
v  2.0534 2.2771 12.1721
v  -2.3026 2.2771 12.1721
v  -2.3026 0.8867 12.1639
v  2.0534 2.2771 10.2000
v  -2.3026 2.2771 10.2000
v  2.0534 -0.1555 13.6079
v  2.0534 1.2349 13.6161
v  -2.3026 1.2349 13.6161
v  -2.3026 -0.1555 13.6079
v  2.0534 1.2349 11.6440
v  -2.3026 1.2349 11.6440
v  2.0534 1.9933 10.7123
v  2.0534 3.3838 10.7204
v  -2.3026 3.3838 10.7204
v  -2.3026 1.9933 10.7123
v  2.0534 3.3838 8.7483
v  -2.3026 3.3838 8.7483
v  2.0534 3.3921 9.2769
v  2.0534 4.7825 9.2851
v  -2.3026 4.7825 9.2851
v  -2.3026 3.3921 9.2769
v  2.0534 4.7825 7.3130
v  -2.3026 4.7825 7.3130
# 156 vertices

vn 0.0000 0.7602 0.6497
vn 0.0000 0.9381 0.3463
vn 0.0000 0.0000 1.0000
vn 1.0000 0.0000 -0.0000
vn -1.0000 0.0000 -0.0000
vn 0.0000 1.0000 0.0000
vn 0.0000 1.0000 -0.0000
vn 0.0000 0.0000 -1.0000
vn -1.0000 0.0000 0.0000
vn 0.0000 0.2806 0.9598
vn 0.0000 0.2806 -0.9598
vn 0.9076 0.1867 -0.3760
vn 0.3760 0.1867 -0.9076
vn -0.3760 0.1867 -0.9076
vn -0.9076 0.1867 -0.3760
vn -0.9076 0.1867 0.3760
vn -0.3760 0.1867 0.9076
vn 0.3760 0.1867 0.9076
vn 0.9076 0.1867 0.3760
vn 0.6685 0.6902 -0.2769
vn 0.2769 0.6902 -0.6685
vn -0.2769 0.6902 -0.6685
vn -0.6685 0.6902 -0.2769
vn -0.6685 0.6902 0.2769
vn -0.2769 0.6902 0.6685
vn 0.2769 0.6902 0.6685
vn 0.6685 0.6902 0.2769
vn 0.9102 0.1716 -0.3770
vn 0.3770 0.1716 -0.9102
vn -0.3770 0.1716 -0.9102
vn -0.9102 0.1716 -0.3770
vn -0.9102 0.1716 0.3770
vn -0.3770 0.1716 0.9102
vn 0.3770 0.1716 0.9102
vn 0.9102 0.1716 0.3770
vn 0.7071 0.0000 -0.7071
vn -0.7071 0.0000 -0.7071
vn -0.7071 0.0000 0.7071
vn 0.7071 0.0000 0.7071
vn 0.0000 -0.0059 1.0000
vn 0.0000 0.7050 0.7092
# 41 vertex normals

vt 0.2938 0.4276 0.0000
vt 0.0912 0.4276 0.0000
vt 0.0912 0.3822 0.0000
vt 0.2938 0.3822 0.0000
vt 0.4079 0.3822 0.0000
vt 0.4079 0.4276 0.0000
vt 0.9903 0.0169 0.0000
vt 0.9189 0.2107 0.0000
vt 0.7349 0.0534 0.0000
vt 0.7349 0.0169 0.0000
vt 0.9903 0.2107 0.0000
vt 0.0126 0.4276 0.0000
vt 0.0126 0.3822 0.0000
vt 0.7777 0.4069 0.0000
vt 0.5772 0.4069 0.0000
vt 0.5772 0.1283 0.0000
vt 0.7777 0.1283 0.0000
vt 0.9887 0.5907 0.0000
vt 0.4601 0.5907 0.0000
vt 0.4601 0.4162 0.0000
vt 0.9887 0.4162 0.0000
vt 0.0180 0.5871 0.0000
vt 0.4220 0.5871 0.0000
vt 0.4220 0.4402 0.0000
vt 0.0180 0.4402 0.0000
vt 0.4601 0.5921 0.0000
vt 0.9887 0.5921 0.0000
vt 0.9887 0.4175 0.0000
vt 0.4601 0.4175 0.0000
vt 0.4227 0.5884 0.0000
vt 0.0188 0.5884 0.0000
vt 0.0188 0.4414 0.0000
vt 0.4227 0.4414 0.0000
vt 0.3952 0.0277 0.0000
vt 0.4569 0.0277 0.0000
vt 0.4569 0.1359 0.0000
vt 0.3952 0.1359 0.0000
vt 0.2885 0.0213 0.0000
vt 0.3754 0.0213 0.0000
vt 0.3754 0.1295 0.0000
vt 0.2885 0.1295 0.0000
vt 0.5251 0.0133 0.0000
vt 0.7021 0.0133 0.0000
vt 0.6762 0.1020 0.0000
vt 0.5511 0.1020 0.0000
vt 0.2450 0.2946 0.0000
vt 0.2392 0.3350 0.0000
vt 0.3041 0.3350 0.0000
vt 0.3124 0.2946 0.0000
vt 0.1618 0.2946 0.0000
vt 0.1618 0.3350 0.0000
vt 0.0786 0.2946 0.0000
vt 0.0845 0.3350 0.0000
vt 0.0095 0.2946 0.0000
vt 0.0178 0.3350 0.0000
vt 0.1811 0.1763 0.0000
vt 0.0493 0.1763 0.0000
vt 0.1811 0.0446 0.0000
vt 0.2084 0.1104 0.0000
vt 0.2276 0.3763 0.0000
vt 0.2877 0.3763 0.0000
vt 0.1618 0.3763 0.0000
vt 0.0961 0.3763 0.0000
vt 0.0343 0.3763 0.0000
vt 0.1152 0.2036 0.0000
vt 0.0493 0.0446 0.0000
vt 0.1152 0.0173 0.0000
vt 0.0220 0.1104 0.0000
vt 0.1688 0.2039 0.0000
vt 0.2514 0.2039 0.0000
vt 0.2404 0.2869 0.0000
vt 0.1688 0.2869 0.0000
vt 0.3265 0.2039 0.0000
vt 0.3108 0.2869 0.0000
vt 0.0862 0.2039 0.0000
vt 0.0973 0.2869 0.0000
vt 0.0144 0.2039 0.0000
vt 0.0301 0.2869 0.0000
vt 0.1810 0.1766 0.0000
vt 0.0493 0.1766 0.0000
vt 0.1810 0.0448 0.0000
vt 0.2083 0.1107 0.0000
vt 0.1152 0.2039 0.0000
vt 0.0493 0.0448 0.0000
vt 0.1152 0.0176 0.0000
vt 0.0220 0.1107 0.0000
vt 0.3979 0.8120 0.0000
vt 0.4691 0.8120 0.0000
vt 0.4691 0.8871 0.0000
vt 0.3979 0.8871 0.0000
vt 0.6938 0.8922 0.0000
vt 0.6938 0.9808 0.0000
vt 0.3962 0.9808 0.0000
vt 0.3962 0.8922 0.0000
vt 0.2602 0.9020 0.0000
vt 0.2602 0.9796 0.0000
vt 0.0128 0.9796 0.0000
vt 0.0128 0.9020 0.0000
vt 0.0056 0.8070 0.0000
vt 0.0856 0.8070 0.0000
vt 0.0856 0.8913 0.0000
vt 0.0056 0.8913 0.0000
vt 0.0942 0.8087 0.0000
vt 0.1741 0.8087 0.0000
vt 0.1741 0.8930 0.0000
vt 0.0942 0.8930 0.0000
vt 0.1859 0.8076 0.0000
vt 0.2679 0.8076 0.0000
vt 0.2679 0.8896 0.0000
vt 0.1859 0.8896 0.0000
vt 0.7917 0.6157 0.0000
vt 0.9362 0.6157 0.0000
vt 0.9362 0.7680 0.0000
vt 0.7917 0.7680 0.0000
vt 0.7693 0.8057 0.0000
vt 0.9740 0.8057 0.0000
vt 0.9740 0.8921 0.0000
vt 0.7693 0.8921 0.0000
vt 0.7676 0.8967 0.0000
vt 0.9877 0.8967 0.0000
vt 0.9877 0.9850 0.0000
vt 0.7676 0.9850 0.0000
vt 0.3221 0.8047 0.0000
vt 0.3451 0.8047 0.0000
vt 0.3451 0.9610 0.0000
vt 0.3221 0.9610 0.0000
vt 0.3711 0.8047 0.0000
vt 0.3711 0.9610 0.0000
vt 0.2991 0.8047 0.0000
vt 0.2991 0.9610 0.0000
vt 0.2731 0.8047 0.0000
vt 0.2731 0.9610 0.0000
vt 0.7358 0.8797 0.0000
vt 0.6738 0.8797 0.0000
vt 0.7358 0.8177 0.0000
vt 0.7487 0.8487 0.0000
vt 0.7048 0.8926 0.0000
vt 0.6738 0.8177 0.0000
vt 0.7048 0.8048 0.0000
vt 0.6609 0.8487 0.0000
vt 0.6306 0.6539 0.0000
vt 0.6306 0.7031 0.0000
vt 0.4766 0.7031 0.0000
vt 0.4766 0.6539 0.0000
vt 0.1871 0.7099 0.0000
vt 0.0694 0.7099 0.0000
vt 0.0694 0.6566 0.0000
vt 0.1871 0.6566 0.0000
vt 0.6306 0.6171 0.0000
vt 0.6306 0.6662 0.0000
vt 0.4766 0.6662 0.0000
vt 0.4766 0.6171 0.0000
vt 0.1871 0.6709 0.0000
vt 0.0694 0.6709 0.0000
vt 0.0694 0.6176 0.0000
vt 0.1871 0.6176 0.0000
vt 0.6306 0.6931 0.0000
vt 0.6306 0.7422 0.0000
vt 0.4766 0.7422 0.0000
vt 0.4766 0.6931 0.0000
vt 0.1871 0.7491 0.0000
vt 0.0694 0.7491 0.0000
vt 0.0694 0.6958 0.0000
vt 0.1871 0.6958 0.0000
vt 0.6306 0.7425 0.0000
vt 0.6306 0.7917 0.0000
vt 0.4766 0.7917 0.0000
vt 0.4766 0.7425 0.0000
vt 0.1871 0.7879 0.0000
vt 0.0694 0.7879 0.0000
vt 0.0694 0.7346 0.0000
vt 0.1871 0.7346 0.0000
# 172 texture coords

g sgitou
usemtl Material__6
f 1/1/1 2/2/2 3/3/2 
f 3/3/2 4/4/1 1/1/1 
f 5/5/3 6/6/3 1/1/3 
f 1/1/3 4/4/3 5/5/3 
f 7/7/4 2/8/4 1/9/4 
f 1/9/4 6/10/4 7/7/4 
f 8/7/5 3/8/5 9/11/5 
f 10/12/6 9/13/6 3/3/2 
f 3/3/2 2/2/2 10/12/6 
f 7/7/4 10/11/4 2/8/4 
f 5/10/5 4/9/5 3/8/5 
f 3/8/5 8/7/5 5/10/5 
f 11/14/7 12/15/7 13/16/7 
f 13/16/7 14/17/7 11/14/7 
f 15/18/3 16/19/3 12/20/3 
f 12/20/3 11/21/3 15/18/3 
f 16/22/4 17/23/4 13/24/4 
f 13/24/4 12/25/4 16/22/4 
f 17/26/8 18/27/8 14/28/8 
f 14/28/8 13/29/8 17/26/8 
f 18/30/9 15/31/9 11/32/9 
f 11/32/9 14/33/9 18/30/9 
f 19/34/7 20/35/7 21/36/7 
f 21/36/7 22/37/7 19/34/7 
f 23/38/10 24/39/10 20/40/10 
f 20/40/10 19/41/10 23/38/10 
f 24/42/4 25/43/4 21/44/4 
f 21/44/4 20/45/4 24/42/4 
f 25/39/11 26/38/11 22/41/11 
f 22/41/11 21/40/11 25/39/11 
f 26/43/5 23/42/5 19/45/5 
f 19/45/5 22/44/5 26/43/5 
f 27/46/12 28/47/12 29/48/12 
f 29/48/12 30/49/12 27/46/12 
f 31/50/13 32/51/13 28/47/13 
f 28/47/13 27/46/13 31/50/13 
f 33/52/14 34/53/14 32/51/14 
f 32/51/14 31/50/14 33/52/14 
f 35/54/15 36/55/15 34/53/15 
f 34/53/15 33/52/15 35/54/15 
f 37/52/16 38/53/16 36/55/16 
f 36/55/16 35/54/16 37/52/16 
f 39/50/17 40/51/17 38/53/17 
f 38/53/17 37/52/17 39/50/17 
f 41/46/18 42/47/18 40/51/18 
f 40/51/18 39/50/18 41/46/18 
f 30/49/19 29/48/19 42/47/19 
f 42/47/19 41/46/19 30/49/19 
f 43/56/7 44/57/7 45/58/7 
f 45/58/7 46/59/7 43/56/7 
f 43/60/20 46/61/20 29/48/20 
f 29/48/20 28/47/20 43/60/20 
f 47/62/21 43/60/21 28/47/21 
f 28/47/21 32/51/21 47/62/21 
f 44/63/22 47/62/22 32/51/22 
f 32/51/22 34/53/22 44/63/22 
f 48/64/23 44/63/23 34/53/23 
f 34/53/23 36/55/23 48/64/23 
f 49/63/24 48/64/24 36/55/24 
f 36/55/24 38/53/24 49/63/24 
f 50/62/25 49/63/25 38/53/25 
f 38/53/25 40/51/25 50/62/25 
f 45/60/26 50/62/26 40/51/26 
f 40/51/26 42/47/26 45/60/26 
f 46/61/27 45/60/27 42/47/27 
f 42/47/27 29/48/27 46/61/27 
f 43/56/7 47/65/7 44/57/7 
f 49/66/7 50/67/7 45/58/7 
f 45/58/7 44/57/7 49/66/7 
f 44/57/7 48/68/7 49/66/7 
f 51/69/28 52/70/28 53/71/28 
f 53/71/28 54/72/28 51/69/28 
f 52/70/29 55/73/29 56/74/29 
f 56/74/29 53/71/29 52/70/29 
f 55/73/30 57/70/30 58/71/30 
f 58/71/30 56/74/30 55/73/30 
f 57/70/31 59/69/31 60/72/31 
f 60/72/31 58/71/31 57/70/31 
f 59/69/32 61/75/32 62/76/32 
f 62/76/32 60/72/32 59/69/32 
f 61/75/33 63/77/33 64/78/33 
f 64/78/33 62/76/33 61/75/33 
f 63/77/34 65/75/34 66/76/34 
f 66/76/34 64/78/34 63/77/34 
f 65/75/35 51/69/35 54/72/35 
f 54/72/35 66/76/35 65/75/35 
f 53/79/7 58/80/7 66/81/7 
f 66/81/7 54/82/7 53/79/7 
f 53/79/7 56/83/7 58/80/7 
f 62/84/7 64/85/7 66/81/7 
f 66/81/7 58/80/7 62/84/7 
f 58/80/7 60/86/7 62/84/7 
f 67/87/7 68/88/7 69/89/7 
f 69/89/7 70/90/7 67/87/7 
f 71/91/3 72/92/3 68/93/3 
f 68/93/3 67/94/3 71/91/3 
f 72/95/4 73/96/4 69/97/4 
f 69/97/4 68/98/4 72/95/4 
f 73/92/8 74/91/8 70/94/8 
f 70/94/8 69/93/8 73/92/8 
f 74/96/5 71/95/5 67/98/5 
f 67/98/5 70/97/5 74/96/5 
f 75/99/7 76/100/7 77/101/7 
f 77/101/7 78/102/7 75/99/7 
f 79/103/3 80/104/3 76/105/3 
f 76/105/3 75/106/3 79/103/3 
f 80/107/4 81/108/4 77/109/4 
f 77/109/4 76/110/4 80/107/4 
f 81/104/8 82/103/8 78/106/8 
f 78/106/8 77/105/8 81/104/8 
f 82/108/5 79/107/5 75/110/5 
f 75/110/5 78/109/5 82/108/5 
f 83/111/7 84/112/7 85/113/7 
f 85/113/7 86/114/7 83/111/7 
f 87/115/3 88/116/3 84/117/3 
f 84/117/3 83/118/3 87/115/3 
f 88/119/4 89/120/4 85/121/4 
f 85/121/4 84/122/4 88/119/4 
f 89/116/8 90/115/8 86/118/8 
f 86/118/8 85/117/8 89/116/8 
f 90/120/5 87/119/5 83/122/5 
f 83/122/5 86/121/5 90/120/5 
f 91/123/4 92/124/36 93/125/36 
f 93/125/36 94/126/4 91/123/4 
f 92/124/36 95/127/8 96/128/8 
f 96/128/8 93/125/36 92/124/36 
f 95/127/8 97/124/37 98/125/37 
f 98/125/37 96/128/8 95/127/8 
f 97/124/37 99/123/5 100/126/5 
f 100/126/5 98/125/37 97/124/37 
f 99/123/5 101/129/38 102/130/38 
f 102/130/38 100/126/5 99/123/5 
f 101/129/38 103/131/3 104/132/3 
f 104/132/3 102/130/38 101/129/38 
f 103/131/3 105/129/39 106/130/39 
f 106/130/39 104/132/3 103/131/3 
f 105/129/39 91/123/4 94/126/4 
f 94/126/4 106/130/39 105/129/39 
f 93/133/7 98/134/7 106/135/7 
f 106/135/7 94/136/7 93/133/7 
f 93/133/7 96/137/7 98/134/7 
f 102/138/7 104/139/7 106/135/7 
f 106/135/7 98/134/7 102/138/7 
f 98/134/7 100/140/7 102/138/7 
f 107/123/4 108/124/36 109/125/36 
f 109/125/36 110/126/4 107/123/4 
f 108/124/36 111/127/8 112/128/8 
f 112/128/8 109/125/36 108/124/36 
f 111/127/8 113/124/37 114/125/37 
f 114/125/37 112/128/8 111/127/8 
f 113/124/37 115/123/5 116/126/5 
f 116/126/5 114/125/37 113/124/37 
f 115/123/5 117/129/38 118/130/38 
f 118/130/38 116/126/5 115/123/5 
f 117/129/38 119/131/3 120/132/3 
f 120/132/3 118/130/38 117/129/38 
f 119/131/3 121/129/39 122/130/39 
f 122/130/39 120/132/3 119/131/3 
f 121/129/39 107/123/4 110/126/4 
f 110/126/4 122/130/39 121/129/39 
f 109/133/7 114/134/7 122/135/7 
f 122/135/7 110/136/7 109/133/7 
f 109/133/7 112/137/7 114/134/7 
f 118/138/7 120/139/7 122/135/7 
f 122/135/7 114/134/7 118/138/7 
f 114/134/7 116/140/7 118/138/7 
f 123/1/1 124/2/2 125/3/2 
f 125/3/2 126/4/1 123/1/1 
f 127/5/3 128/6/3 123/1/3 
f 123/1/3 126/4/3 127/5/3 
f 129/7/4 124/8/4 123/9/4 
f 123/9/4 128/10/4 129/7/4 
f 130/7/5 125/8/5 131/11/5 
f 132/12/6 131/13/6 125/3/2 
f 125/3/2 124/2/2 132/12/6 
f 129/7/4 132/11/4 124/8/4 
f 127/10/5 126/9/5 125/8/5 
f 125/8/5 130/7/5 127/10/5 
f 133/141/40 134/142/41 135/143/41 
f 135/143/41 136/144/40 133/141/40 
f 137/145/6 138/146/6 135/147/41 
f 135/147/41 134/148/41 137/145/6 
f 139/149/40 140/150/41 141/151/41 
f 141/151/41 142/152/40 139/149/40 
f 143/153/6 144/154/6 141/155/41 
f 141/155/41 140/156/41 143/153/6 
f 145/157/40 146/158/41 147/159/41 
f 147/159/41 148/160/40 145/157/40 
f 149/161/6 150/162/6 147/163/41 
f 147/163/41 146/164/41 149/161/6 
f 151/165/40 152/166/41 153/167/41 
f 153/167/41 154/168/40 151/165/40 
f 155/169/6 156/170/6 153/171/41 
f 153/171/41 152/172/41 155/169/6 
# 194 faces

